<?xml version="1.0"?>
<svg xmlns="http://www.w3.org/2000/svg" xmlns:xlink="http://www.w3.org/1999/xlink" version="1.1" width="500px" height="500px" viewBox="0 0 500 500"><defs><rect id="block" width="20" height="20" fill="#000000" fill-opacity="1"/></defs><rect x="0" y="0" width="500" height="500" fill="#ffffff" fill-opacity="1"/><use x="0" y="0" xlink:href="#block"/><use x="20" y="0" xlink:href="#block"/><use x="40" y="0" xlink:href="#block"/><use x="60" y="0" xlink:href="#block"/><use x="80" y="0" xlink:href="#block"/><use x="100" y="0" xlink:href="#block"/><use x="120" y="0" xlink:href="#block"/><use x="200" y="0" xlink:href="#block"/><use x="220" y="0" xlink:href="#block"/><use x="240" y="0" xlink:href="#block"/><use x="280" y="0" xlink:href="#block"/><use x="360" y="0" xlink:href="#block"/><use x="380" y="0" xlink:href="#block"/><use x="400" y="0" xlink:href="#block"/><use x="420" y="0" xlink:href="#block"/><use x="440" y="0" xlink:href="#block"/><use x="460" y="0" xlink:href="#block"/><use x="480" y="0" xlink:href="#block"/><use x="0" y="20" xlink:href="#block"/><use x="120" y="20" xlink:href="#block"/><use x="220" y="20" xlink:href="#block"/><use x="280" y="20" xlink:href="#block"/><use x="300" y="20" xlink:href="#block"/><use x="360" y="20" xlink:href="#block"/><use x="480" y="20" xlink:href="#block"/><use x="0" y="40" xlink:href="#block"/><use x="40" y="40" xlink:href="#block"/><use x="60" y="40" xlink:href="#block"/><use x="80" y="40" xlink:href="#block"/><use x="120" y="40" xlink:href="#block"/><use x="160" y="40" xlink:href="#block"/><use x="240" y="40" xlink:href="#block"/><use x="260" y="40" xlink:href="#block"/><use x="280" y="40" xlink:href="#block"/><use x="320" y="40" xlink:href="#block"/><use x="360" y="40" xlink:href="#block"/><use x="400" y="40" xlink:href="#block"/><use x="420" y="40" xlink:href="#block"/><use x="440" y="40" xlink:href="#block"/><use x="480" y="40" xlink:href="#block"/><use x="0" y="60" xlink:href="#block"/><use x="40" y="60" xlink:href="#block"/><use x="60" y="60" xlink:href="#block"/><use x="80" y="60" xlink:href="#block"/><use x="120" y="60" xlink:href="#block"/><use x="160" y="60" xlink:href="#block"/><use x="220" y="60" xlink:href="#block"/><use x="260" y="60" xlink:href="#block"/><use x="300" y="60" xlink:href="#block"/><use x="320" y="60" xlink:href="#block"/><use x="360" y="60" xlink:href="#block"/><use x="400" y="60" xlink:href="#block"/><use x="420" y="60" xlink:href="#block"/><use x="440" y="60" xlink:href="#block"/><use x="480" y="60" xlink:href="#block"/><use x="0" y="80" xlink:href="#block"/><use x="40" y="80" xlink:href="#block"/><use x="60" y="80" xlink:href="#block"/><use x="80" y="80" xlink:href="#block"/><use x="120" y="80" xlink:href="#block"/><use x="200" y="80" xlink:href="#block"/><use x="240" y="80" xlink:href="#block"/><use x="280" y="80" xlink:href="#block"/><use x="300" y="80" xlink:href="#block"/><use x="320" y="80" xlink:href="#block"/><use x="360" y="80" xlink:href="#block"/><use x="400" y="80" xlink:href="#block"/><use x="420" y="80" xlink:href="#block"/><use x="440" y="80" xlink:href="#block"/><use x="480" y="80" xlink:href="#block"/><use x="0" y="100" xlink:href="#block"/><use x="120" y="100" xlink:href="#block"/><use x="200" y="100" xlink:href="#block"/><use x="360" y="100" xlink:href="#block"/><use x="480" y="100" xlink:href="#block"/><use x="0" y="120" xlink:href="#block"/><use x="20" y="120" xlink:href="#block"/><use x="40" y="120" xlink:href="#block"/><use x="60" y="120" xlink:href="#block"/><use x="80" y="120" xlink:href="#block"/><use x="100" y="120" xlink:href="#block"/><use x="120" y="120" xlink:href="#block"/><use x="160" y="120" xlink:href="#block"/><use x="200" y="120" xlink:href="#block"/><use x="240" y="120" xlink:href="#block"/><use x="280" y="120" xlink:href="#block"/><use x="320" y="120" xlink:href="#block"/><use x="360" y="120" xlink:href="#block"/><use x="380" y="120" xlink:href="#block"/><use x="400" y="120" xlink:href="#block"/><use x="420" y="120" xlink:href="#block"/><use x="440" y="120" xlink:href="#block"/><use x="460" y="120" xlink:href="#block"/><use x="480" y="120" xlink:href="#block"/><use x="180" y="140" xlink:href="#block"/><use x="220" y="140" xlink:href="#block"/><use x="260" y="140" xlink:href="#block"/><use x="280" y="140" xlink:href="#block"/><use x="300" y="140" xlink:href="#block"/><use x="320" y="140" xlink:href="#block"/><use x="60" y="160" xlink:href="#block"/><use x="80" y="160" xlink:href="#block"/><use x="120" y="160" xlink:href="#block"/><use x="140" y="160" xlink:href="#block"/><use x="200" y="160" xlink:href="#block"/><use x="220" y="160" xlink:href="#block"/><use x="320" y="160" xlink:href="#block"/><use x="420" y="160" xlink:href="#block"/><use x="440" y="160" xlink:href="#block"/><use x="20" y="180" xlink:href="#block"/><use x="100" y="180" xlink:href="#block"/><use x="140" y="180" xlink:href="#block"/><use x="180" y="180" xlink:href="#block"/><use x="240" y="180" xlink:href="#block"/><use x="260" y="180" xlink:href="#block"/><use x="300" y="180" xlink:href="#block"/><use x="400" y="180" xlink:href="#block"/><use x="420" y="180" xlink:href="#block"/><use x="440" y="180" xlink:href="#block"/><use x="0" y="200" xlink:href="#block"/><use x="40" y="200" xlink:href="#block"/><use x="80" y="200" xlink:href="#block"/><use x="100" y="200" xlink:href="#block"/><use x="120" y="200" xlink:href="#block"/><use x="140" y="200" xlink:href="#block"/><use x="180" y="200" xlink:href="#block"/><use x="220" y="200" xlink:href="#block"/><use x="240" y="200" xlink:href="#block"/><use x="260" y="200" xlink:href="#block"/><use x="340" y="200" xlink:href="#block"/><use x="360" y="200" xlink:href="#block"/><use x="380" y="200" xlink:href="#block"/><use x="420" y="200" xlink:href="#block"/><use x="440" y="200" xlink:href="#block"/><use x="460" y="200" xlink:href="#block"/><use x="480" y="200" xlink:href="#block"/><use x="20" y="220" xlink:href="#block"/><use x="40" y="220" xlink:href="#block"/><use x="100" y="220" xlink:href="#block"/><use x="160" y="220" xlink:href="#block"/><use x="180" y="220" xlink:href="#block"/><use x="220" y="220" xlink:href="#block"/><use x="240" y="220" xlink:href="#block"/><use x="260" y="220" xlink:href="#block"/><use x="280" y="220" xlink:href="#block"/><use x="300" y="220" xlink:href="#block"/><use x="340" y="220" xlink:href="#block"/><use x="360" y="220" xlink:href="#block"/><use x="380" y="220" xlink:href="#block"/><use x="420" y="220" xlink:href="#block"/><use x="440" y="220" xlink:href="#block"/><use x="0" y="240" xlink:href="#block"/><use x="20" y="240" xlink:href="#block"/><use x="40" y="240" xlink:href="#block"/><use x="120" y="240" xlink:href="#block"/><use x="140" y="240" xlink:href="#block"/><use x="180" y="240" xlink:href="#block"/><use x="240" y="240" xlink:href="#block"/><use x="260" y="240" xlink:href="#block"/><use x="280" y="240" xlink:href="#block"/><use x="300" y="240" xlink:href="#block"/><use x="340" y="240" xlink:href="#block"/><use x="360" y="240" xlink:href="#block"/><use x="400" y="240" xlink:href="#block"/><use x="440" y="240" xlink:href="#block"/><use x="480" y="240" xlink:href="#block"/><use x="0" y="260" xlink:href="#block"/><use x="20" y="260" xlink:href="#block"/><use x="80" y="260" xlink:href="#block"/><use x="100" y="260" xlink:href="#block"/><use x="140" y="260" xlink:href="#block"/><use x="160" y="260" xlink:href="#block"/><use x="180" y="260" xlink:href="#block"/><use x="200" y="260" xlink:href="#block"/><use x="280" y="260" xlink:href="#block"/><use x="360" y="260" xlink:href="#block"/><use x="400" y="260" xlink:href="#block"/><use x="420" y="260" xlink:href="#block"/><use x="480" y="260" xlink:href="#block"/><use x="0" y="280" xlink:href="#block"/><use x="20" y="280" xlink:href="#block"/><use x="40" y="280" xlink:href="#block"/><use x="60" y="280" xlink:href="#block"/><use x="120" y="280" xlink:href="#block"/><use x="180" y="280" xlink:href="#block"/><use x="220" y="280" xlink:href="#block"/><use x="260" y="280" xlink:href="#block"/><use x="300" y="280" xlink:href="#block"/><use x="340" y="280" xlink:href="#block"/><use x="380" y="280" xlink:href="#block"/><use x="400" y="280" xlink:href="#block"/><use x="420" y="280" xlink:href="#block"/><use x="0" y="300" xlink:href="#block"/><use x="40" y="300" xlink:href="#block"/><use x="80" y="300" xlink:href="#block"/><use x="140" y="300" xlink:href="#block"/><use x="160" y="300" xlink:href="#block"/><use x="180" y="300" xlink:href="#block"/><use x="200" y="300" xlink:href="#block"/><use x="240" y="300" xlink:href="#block"/><use x="260" y="300" xlink:href="#block"/><use x="280" y="300" xlink:href="#block"/><use x="320" y="300" xlink:href="#block"/><use x="380" y="300" xlink:href="#block"/><use x="400" y="300" xlink:href="#block"/><use x="420" y="300" xlink:href="#block"/><use x="440" y="300" xlink:href="#block"/><use x="480" y="300" xlink:href="#block"/><use x="0" y="320" xlink:href="#block"/><use x="40" y="320" xlink:href="#block"/><use x="100" y="320" xlink:href="#block"/><use x="120" y="320" xlink:href="#block"/><use x="160" y="320" xlink:href="#block"/><use x="180" y="320" xlink:href="#block"/><use x="280" y="320" xlink:href="#block"/><use x="300" y="320" xlink:href="#block"/><use x="320" y="320" xlink:href="#block"/><use x="340" y="320" xlink:href="#block"/><use x="360" y="320" xlink:href="#block"/><use x="380" y="320" xlink:href="#block"/><use x="400" y="320" xlink:href="#block"/><use x="440" y="320" xlink:href="#block"/><use x="460" y="320" xlink:href="#block"/><use x="480" y="320" xlink:href="#block"/><use x="160" y="340" xlink:href="#block"/><use x="180" y="340" xlink:href="#block"/><use x="200" y="340" xlink:href="#block"/><use x="220" y="340" xlink:href="#block"/><use x="320" y="340" xlink:href="#block"/><use x="400" y="340" xlink:href="#block"/><use x="420" y="340" xlink:href="#block"/><use x="440" y="340" xlink:href="#block"/><use x="460" y="340" xlink:href="#block"/><use x="480" y="340" xlink:href="#block"/><use x="0" y="360" xlink:href="#block"/><use x="20" y="360" xlink:href="#block"/><use x="40" y="360" xlink:href="#block"/><use x="60" y="360" xlink:href="#block"/><use x="80" y="360" xlink:href="#block"/><use x="100" y="360" xlink:href="#block"/><use x="120" y="360" xlink:href="#block"/><use x="160" y="360" xlink:href="#block"/><use x="200" y="360" xlink:href="#block"/><use x="220" y="360" xlink:href="#block"/><use x="240" y="360" xlink:href="#block"/><use x="260" y="360" xlink:href="#block"/><use x="300" y="360" xlink:href="#block"/><use x="320" y="360" xlink:href="#block"/><use x="360" y="360" xlink:href="#block"/><use x="400" y="360" xlink:href="#block"/><use x="420" y="360" xlink:href="#block"/><use x="480" y="360" xlink:href="#block"/><use x="0" y="380" xlink:href="#block"/><use x="120" y="380" xlink:href="#block"/><use x="200" y="380" xlink:href="#block"/><use x="220" y="380" xlink:href="#block"/><use x="260" y="380" xlink:href="#block"/><use x="280" y="380" xlink:href="#block"/><use x="300" y="380" xlink:href="#block"/><use x="320" y="380" xlink:href="#block"/><use x="400" y="380" xlink:href="#block"/><use x="440" y="380" xlink:href="#block"/><use x="0" y="400" xlink:href="#block"/><use x="40" y="400" xlink:href="#block"/><use x="60" y="400" xlink:href="#block"/><use x="80" y="400" xlink:href="#block"/><use x="120" y="400" xlink:href="#block"/><use x="160" y="400" xlink:href="#block"/><use x="220" y="400" xlink:href="#block"/><use x="260" y="400" xlink:href="#block"/><use x="320" y="400" xlink:href="#block"/><use x="340" y="400" xlink:href="#block"/><use x="360" y="400" xlink:href="#block"/><use x="380" y="400" xlink:href="#block"/><use x="400" y="400" xlink:href="#block"/><use x="440" y="400" xlink:href="#block"/><use x="0" y="420" xlink:href="#block"/><use x="40" y="420" xlink:href="#block"/><use x="60" y="420" xlink:href="#block"/><use x="80" y="420" xlink:href="#block"/><use x="120" y="420" xlink:href="#block"/><use x="160" y="420" xlink:href="#block"/><use x="220" y="420" xlink:href="#block"/><use x="260" y="420" xlink:href="#block"/><use x="280" y="420" xlink:href="#block"/><use x="340" y="420" xlink:href="#block"/><use x="400" y="420" xlink:href="#block"/><use x="420" y="420" xlink:href="#block"/><use x="440" y="420" xlink:href="#block"/><use x="460" y="420" xlink:href="#block"/><use x="480" y="420" xlink:href="#block"/><use x="0" y="440" xlink:href="#block"/><use x="40" y="440" xlink:href="#block"/><use x="60" y="440" xlink:href="#block"/><use x="80" y="440" xlink:href="#block"/><use x="120" y="440" xlink:href="#block"/><use x="180" y="440" xlink:href="#block"/><use x="200" y="440" xlink:href="#block"/><use x="220" y="440" xlink:href="#block"/><use x="260" y="440" xlink:href="#block"/><use x="280" y="440" xlink:href="#block"/><use x="320" y="440" xlink:href="#block"/><use x="340" y="440" xlink:href="#block"/><use x="360" y="440" xlink:href="#block"/><use x="380" y="440" xlink:href="#block"/><use x="400" y="440" xlink:href="#block"/><use x="440" y="440" xlink:href="#block"/><use x="460" y="440" xlink:href="#block"/><use x="480" y="440" xlink:href="#block"/><use x="0" y="460" xlink:href="#block"/><use x="120" y="460" xlink:href="#block"/><use x="240" y="460" xlink:href="#block"/><use x="280" y="460" xlink:href="#block"/><use x="300" y="460" xlink:href="#block"/><use x="320" y="460" xlink:href="#block"/><use x="340" y="460" xlink:href="#block"/><use x="360" y="460" xlink:href="#block"/><use x="380" y="460" xlink:href="#block"/><use x="400" y="460" xlink:href="#block"/><use x="440" y="460" xlink:href="#block"/><use x="0" y="480" xlink:href="#block"/><use x="20" y="480" xlink:href="#block"/><use x="40" y="480" xlink:href="#block"/><use x="60" y="480" xlink:href="#block"/><use x="80" y="480" xlink:href="#block"/><use x="100" y="480" xlink:href="#block"/><use x="120" y="480" xlink:href="#block"/><use x="180" y="480" xlink:href="#block"/><use x="220" y="480" xlink:href="#block"/><use x="260" y="480" xlink:href="#block"/><use x="280" y="480" xlink:href="#block"/><use x="300" y="480" xlink:href="#block"/><use x="320" y="480" xlink:href="#block"/><use x="360" y="480" xlink:href="#block"/><use x="400" y="480" xlink:href="#block"/><use x="480" y="480" xlink:href="#block"/></svg>
