<?xml version="1.0"?>
<svg xmlns="http://www.w3.org/2000/svg" xmlns:xlink="http://www.w3.org/1999/xlink" version="1.1" width="500px" height="500px" viewBox="0 0 500 500"><defs><rect id="block" width="23" height="23" fill="#000000" fill-opacity="1"/></defs><rect x="0" y="0" width="500" height="500" fill="#ffffff" fill-opacity="1"/><use x="8" y="8" xlink:href="#block"/><use x="31" y="8" xlink:href="#block"/><use x="54" y="8" xlink:href="#block"/><use x="77" y="8" xlink:href="#block"/><use x="100" y="8" xlink:href="#block"/><use x="123" y="8" xlink:href="#block"/><use x="146" y="8" xlink:href="#block"/><use x="284" y="8" xlink:href="#block"/><use x="330" y="8" xlink:href="#block"/><use x="353" y="8" xlink:href="#block"/><use x="376" y="8" xlink:href="#block"/><use x="399" y="8" xlink:href="#block"/><use x="422" y="8" xlink:href="#block"/><use x="445" y="8" xlink:href="#block"/><use x="468" y="8" xlink:href="#block"/><use x="8" y="31" xlink:href="#block"/><use x="146" y="31" xlink:href="#block"/><use x="192" y="31" xlink:href="#block"/><use x="284" y="31" xlink:href="#block"/><use x="330" y="31" xlink:href="#block"/><use x="468" y="31" xlink:href="#block"/><use x="8" y="54" xlink:href="#block"/><use x="54" y="54" xlink:href="#block"/><use x="77" y="54" xlink:href="#block"/><use x="100" y="54" xlink:href="#block"/><use x="146" y="54" xlink:href="#block"/><use x="192" y="54" xlink:href="#block"/><use x="215" y="54" xlink:href="#block"/><use x="261" y="54" xlink:href="#block"/><use x="284" y="54" xlink:href="#block"/><use x="330" y="54" xlink:href="#block"/><use x="376" y="54" xlink:href="#block"/><use x="399" y="54" xlink:href="#block"/><use x="422" y="54" xlink:href="#block"/><use x="468" y="54" xlink:href="#block"/><use x="8" y="77" xlink:href="#block"/><use x="54" y="77" xlink:href="#block"/><use x="77" y="77" xlink:href="#block"/><use x="100" y="77" xlink:href="#block"/><use x="146" y="77" xlink:href="#block"/><use x="192" y="77" xlink:href="#block"/><use x="261" y="77" xlink:href="#block"/><use x="284" y="77" xlink:href="#block"/><use x="330" y="77" xlink:href="#block"/><use x="376" y="77" xlink:href="#block"/><use x="399" y="77" xlink:href="#block"/><use x="422" y="77" xlink:href="#block"/><use x="468" y="77" xlink:href="#block"/><use x="8" y="100" xlink:href="#block"/><use x="54" y="100" xlink:href="#block"/><use x="77" y="100" xlink:href="#block"/><use x="100" y="100" xlink:href="#block"/><use x="146" y="100" xlink:href="#block"/><use x="192" y="100" xlink:href="#block"/><use x="215" y="100" xlink:href="#block"/><use x="261" y="100" xlink:href="#block"/><use x="284" y="100" xlink:href="#block"/><use x="330" y="100" xlink:href="#block"/><use x="376" y="100" xlink:href="#block"/><use x="399" y="100" xlink:href="#block"/><use x="422" y="100" xlink:href="#block"/><use x="468" y="100" xlink:href="#block"/><use x="8" y="123" xlink:href="#block"/><use x="146" y="123" xlink:href="#block"/><use x="192" y="123" xlink:href="#block"/><use x="261" y="123" xlink:href="#block"/><use x="330" y="123" xlink:href="#block"/><use x="468" y="123" xlink:href="#block"/><use x="8" y="146" xlink:href="#block"/><use x="31" y="146" xlink:href="#block"/><use x="54" y="146" xlink:href="#block"/><use x="77" y="146" xlink:href="#block"/><use x="100" y="146" xlink:href="#block"/><use x="123" y="146" xlink:href="#block"/><use x="146" y="146" xlink:href="#block"/><use x="192" y="146" xlink:href="#block"/><use x="238" y="146" xlink:href="#block"/><use x="284" y="146" xlink:href="#block"/><use x="330" y="146" xlink:href="#block"/><use x="353" y="146" xlink:href="#block"/><use x="376" y="146" xlink:href="#block"/><use x="399" y="146" xlink:href="#block"/><use x="422" y="146" xlink:href="#block"/><use x="445" y="146" xlink:href="#block"/><use x="468" y="146" xlink:href="#block"/><use x="238" y="169" xlink:href="#block"/><use x="284" y="169" xlink:href="#block"/><use x="54" y="192" xlink:href="#block"/><use x="123" y="192" xlink:href="#block"/><use x="146" y="192" xlink:href="#block"/><use x="169" y="192" xlink:href="#block"/><use x="192" y="192" xlink:href="#block"/><use x="238" y="192" xlink:href="#block"/><use x="261" y="192" xlink:href="#block"/><use x="307" y="192" xlink:href="#block"/><use x="353" y="192" xlink:href="#block"/><use x="376" y="192" xlink:href="#block"/><use x="399" y="192" xlink:href="#block"/><use x="422" y="192" xlink:href="#block"/><use x="445" y="192" xlink:href="#block"/><use x="8" y="215" xlink:href="#block"/><use x="31" y="215" xlink:href="#block"/><use x="54" y="215" xlink:href="#block"/><use x="77" y="215" xlink:href="#block"/><use x="100" y="215" xlink:href="#block"/><use x="123" y="215" xlink:href="#block"/><use x="169" y="215" xlink:href="#block"/><use x="215" y="215" xlink:href="#block"/><use x="238" y="215" xlink:href="#block"/><use x="261" y="215" xlink:href="#block"/><use x="284" y="215" xlink:href="#block"/><use x="307" y="215" xlink:href="#block"/><use x="330" y="215" xlink:href="#block"/><use x="445" y="215" xlink:href="#block"/><use x="468" y="215" xlink:href="#block"/><use x="77" y="238" xlink:href="#block"/><use x="100" y="238" xlink:href="#block"/><use x="146" y="238" xlink:href="#block"/><use x="169" y="238" xlink:href="#block"/><use x="215" y="238" xlink:href="#block"/><use x="238" y="238" xlink:href="#block"/><use x="261" y="238" xlink:href="#block"/><use x="307" y="238" xlink:href="#block"/><use x="399" y="238" xlink:href="#block"/><use x="422" y="238" xlink:href="#block"/><use x="8" y="261" xlink:href="#block"/><use x="54" y="261" xlink:href="#block"/><use x="77" y="261" xlink:href="#block"/><use x="123" y="261" xlink:href="#block"/><use x="192" y="261" xlink:href="#block"/><use x="261" y="261" xlink:href="#block"/><use x="284" y="261" xlink:href="#block"/><use x="307" y="261" xlink:href="#block"/><use x="330" y="261" xlink:href="#block"/><use x="376" y="261" xlink:href="#block"/><use x="445" y="261" xlink:href="#block"/><use x="468" y="261" xlink:href="#block"/><use x="54" y="284" xlink:href="#block"/><use x="77" y="284" xlink:href="#block"/><use x="100" y="284" xlink:href="#block"/><use x="146" y="284" xlink:href="#block"/><use x="169" y="284" xlink:href="#block"/><use x="192" y="284" xlink:href="#block"/><use x="238" y="284" xlink:href="#block"/><use x="261" y="284" xlink:href="#block"/><use x="284" y="284" xlink:href="#block"/><use x="307" y="284" xlink:href="#block"/><use x="330" y="284" xlink:href="#block"/><use x="192" y="307" xlink:href="#block"/><use x="261" y="307" xlink:href="#block"/><use x="330" y="307" xlink:href="#block"/><use x="353" y="307" xlink:href="#block"/><use x="8" y="330" xlink:href="#block"/><use x="31" y="330" xlink:href="#block"/><use x="54" y="330" xlink:href="#block"/><use x="77" y="330" xlink:href="#block"/><use x="100" y="330" xlink:href="#block"/><use x="123" y="330" xlink:href="#block"/><use x="146" y="330" xlink:href="#block"/><use x="192" y="330" xlink:href="#block"/><use x="307" y="330" xlink:href="#block"/><use x="353" y="330" xlink:href="#block"/><use x="376" y="330" xlink:href="#block"/><use x="422" y="330" xlink:href="#block"/><use x="468" y="330" xlink:href="#block"/><use x="8" y="353" xlink:href="#block"/><use x="146" y="353" xlink:href="#block"/><use x="192" y="353" xlink:href="#block"/><use x="238" y="353" xlink:href="#block"/><use x="284" y="353" xlink:href="#block"/><use x="353" y="353" xlink:href="#block"/><use x="468" y="353" xlink:href="#block"/><use x="8" y="376" xlink:href="#block"/><use x="54" y="376" xlink:href="#block"/><use x="77" y="376" xlink:href="#block"/><use x="100" y="376" xlink:href="#block"/><use x="146" y="376" xlink:href="#block"/><use x="284" y="376" xlink:href="#block"/><use x="307" y="376" xlink:href="#block"/><use x="330" y="376" xlink:href="#block"/><use x="353" y="376" xlink:href="#block"/><use x="376" y="376" xlink:href="#block"/><use x="399" y="376" xlink:href="#block"/><use x="422" y="376" xlink:href="#block"/><use x="445" y="376" xlink:href="#block"/><use x="468" y="376" xlink:href="#block"/><use x="8" y="399" xlink:href="#block"/><use x="54" y="399" xlink:href="#block"/><use x="77" y="399" xlink:href="#block"/><use x="100" y="399" xlink:href="#block"/><use x="146" y="399" xlink:href="#block"/><use x="215" y="399" xlink:href="#block"/><use x="307" y="399" xlink:href="#block"/><use x="330" y="399" xlink:href="#block"/><use x="8" y="422" xlink:href="#block"/><use x="54" y="422" xlink:href="#block"/><use x="77" y="422" xlink:href="#block"/><use x="100" y="422" xlink:href="#block"/><use x="146" y="422" xlink:href="#block"/><use x="192" y="422" xlink:href="#block"/><use x="215" y="422" xlink:href="#block"/><use x="238" y="422" xlink:href="#block"/><use x="261" y="422" xlink:href="#block"/><use x="399" y="422" xlink:href="#block"/><use x="422" y="422" xlink:href="#block"/><use x="445" y="422" xlink:href="#block"/><use x="468" y="422" xlink:href="#block"/><use x="8" y="445" xlink:href="#block"/><use x="146" y="445" xlink:href="#block"/><use x="215" y="445" xlink:href="#block"/><use x="261" y="445" xlink:href="#block"/><use x="284" y="445" xlink:href="#block"/><use x="330" y="445" xlink:href="#block"/><use x="376" y="445" xlink:href="#block"/><use x="445" y="445" xlink:href="#block"/><use x="8" y="468" xlink:href="#block"/><use x="31" y="468" xlink:href="#block"/><use x="54" y="468" xlink:href="#block"/><use x="77" y="468" xlink:href="#block"/><use x="100" y="468" xlink:href="#block"/><use x="123" y="468" xlink:href="#block"/><use x="146" y="468" xlink:href="#block"/><use x="215" y="468" xlink:href="#block"/><use x="238" y="468" xlink:href="#block"/><use x="261" y="468" xlink:href="#block"/><use x="307" y="468" xlink:href="#block"/><use x="399" y="468" xlink:href="#block"/><use x="422" y="468" xlink:href="#block"/><use x="445" y="468" xlink:href="#block"/><use x="468" y="468" xlink:href="#block"/></svg>
